<svg xmlns="http://www.w3.org/2000/svg" width="93.032" height="59.509"><g data-name="Group 214" fill="#fff"><path data-name="Path 2" d="M3.366 3.367h86.3v52.776h-86.3zM0 59.509h93.032V0H0z"/><path data-name="Path 3" d="M25.046 17.905l3.8 7.484h2.606l3.77-7.484v11.5h3.853V9.671h-3.8l-5.128 10.673-5.156-10.673h-3.8v19.738h3.853z"/><path data-name="Rectangle 1" d="M43.674 9.672h3.853V29.41h-3.853z"/><path data-name="Path 4" d="M55.982 17.295l7.817 12.114h3.438V9.671h-3.853v12.088L55.567 9.671h-3.438v19.738h3.855z"/><path data-name="Path 5" d="M84.175 27.524c2.217-2.217 2-5.1 2-8.067s.222-5.683-2-7.9a7.189 7.189 0 00-5.211-1.885h-7.125v19.737h7.125a7.186 7.186 0 005.211-1.885m-8.483-1.552V13.109h2.912a3.44 3.44 0 012.883 1.22c.72.887.831 2.135.831 5.128s-.111 4.408-.831 5.295a3.442 3.442 0 01-2.883 1.22z"/><path data-name="Path 6" d="M7.93 25.264v6.215h1.508v-2.262h7.152v-1.692H9.438v-2.261z"/><path data-name="Path 7" d="M7.929 19.273h3.54v2.932h-3.54v1.69h8.66v-1.69h-3.624v-2.931h3.625v-1.692H7.93z"/><path data-name="Path 8" d="M9.317 49.402a6.692 6.692 0 009.314 0c1.742-1.743 1.718-3.895 1.718-6.872s.024-5.129-1.718-6.871a6.688 6.688 0 00-9.314 0c-1.743 1.742-1.695 3.9-1.695 6.871s-.048 5.129 1.695 6.872m2.492-11.71a2.852 2.852 0 012.177-.92 2.8 2.8 0 012.153.92c.654.725.847 1.524.847 4.839s-.193 4.113-.847 4.839a2.8 2.8 0 01-2.153.919 2.852 2.852 0 01-2.177-.919c-.653-.727-.822-1.524-.822-4.839s.169-4.113.822-4.839"/><path data-name="Path 9" d="M23.784 51.143h3.363v-6.992h6.8v-3h-6.8v-4.234h7.984v-3H23.784z"/><path data-name="Path 10" d="M38.058 51.143h3.363v-6.992h6.8v-3h-6.8v-4.234h7.985v-3H38.058z"/><path data-name="Rectangle 2" d="M52.333 33.918h3.363v17.226h-3.363z"/><path data-name="Path 11" d="M60.825 35.659a4.892 4.892 0 00-1.4 2.589 31.725 31.725 0 000 8.564 4.986 4.986 0 001.4 2.589 6.315 6.315 0 004.645 1.886 6.085 6.085 0 006.338-5.443h-3.411a2.839 2.839 0 01-2.9 2.443 2.656 2.656 0 01-2.153-.9c-.7-.75-.848-1.524-.848-4.863s.145-4.113.848-4.863a2.656 2.656 0 012.153-.9 2.839 2.839 0 012.9 2.444h3.411a6.07 6.07 0 00-6.339-5.429 6.314 6.314 0 00-4.645 1.888"/><path data-name="Rectangle 3" d="M74.713 33.917H86.06v2.961H74.713z"/><path data-name="Rectangle 4" d="M74.713 41.026H86.06v2.961H74.713z"/><path data-name="Rectangle 5" d="M74.713 48.182H86.06v2.96H74.713z"/><path data-name="Rectangle 6" d="M14.992 9.73h1.497v5.884h-1.497z"/><path data-name="Rectangle 7" d="M11.396 9.73h1.498v5.884h-1.498z"/><path data-name="Rectangle 8" d="M7.777 9.73h1.498v5.884H7.777z"/></g></svg>