<svg width="148" height="148" viewBox="0 0 148 148" fill="none" xmlns="http://www.w3.org/2000/svg">
<path d="M128.936 106.635L112.995 97.4285C112.733 97.2785 112.444 97.1816 112.144 97.1433C111.845 97.105 111.541 97.1261 111.25 97.2053C110.958 97.2844 110.686 97.4202 110.447 97.6048C110.208 97.7895 110.008 98.0193 109.858 98.2812L106.982 103.268C106.346 104.366 106.722 105.782 107.82 106.418L123.762 115.625C124.024 115.775 124.313 115.872 124.612 115.91C124.912 115.948 125.216 115.927 125.507 115.848C125.798 115.769 126.071 115.633 126.31 115.449C126.548 115.264 126.749 115.034 126.898 114.772L129.775 109.786C130.411 108.687 130.02 107.271 128.936 106.635V106.635ZM109.844 49.7188C109.994 49.9807 110.194 50.2105 110.432 50.3952C110.671 50.5798 110.944 50.7156 111.235 50.7947C111.527 50.8739 111.831 50.895 112.13 50.8567C112.429 50.8184 112.718 50.7215 112.98 50.5715L128.922 41.3648C130.02 40.7289 130.396 39.3125 129.76 38.2141L126.898 33.2422C126.749 32.9802 126.548 32.7504 126.31 32.5658C126.071 32.3812 125.798 32.2454 125.507 32.1662C125.216 32.087 124.912 32.066 124.612 32.1043C124.313 32.1426 124.024 32.2395 123.762 32.3895L107.82 41.5961C107.292 41.9038 106.908 42.408 106.751 42.9985C106.594 43.5889 106.677 44.2175 106.982 44.7469L109.844 49.7188ZM134.992 68.7969H116.492C115.22 68.7969 114.18 69.8375 114.18 71.1094V76.8906C114.18 78.1625 115.22 79.2031 116.492 79.2031H134.992C136.264 79.2031 137.305 78.1625 137.305 76.8906V71.1094C137.305 69.8375 136.264 68.7969 134.992 68.7969ZM90.4621 16.6211C89.6094 16.6211 88.7422 16.8523 87.9473 17.3871L36.7109 50.875H13.0078C11.7359 50.875 10.6953 51.9156 10.6953 53.1875V94.8125C10.6953 96.0844 11.7359 97.125 13.0078 97.125H36.7109L87.9473 130.613C88.7422 131.133 89.6238 131.379 90.4621 131.379C92.8758 131.379 95.1016 129.457 95.1016 126.739V21.2605C95.1016 18.5434 92.8758 16.6211 90.4621 16.6211Z" fill="white"/>
</svg>
